<svg xmlns="http://www.w3.org/2000/svg" xmlns:xlink="http://www.w3.org/1999/xlink" id="Group_8" data-name="Group 8" width="200" height="23.379" viewBox="0 0 200 23.379"><defs><clipPath id="clip-path"><rect id="Rectangle_2" data-name="Rectangle 2" width="200" height="23.379"></rect></clipPath></defs><g id="Group_3" data-name="Group 3" transform="translate(0 0)" clip-path="url(#clip-path)"><path id="Path_2" data-name="Path 2" d="M49.152,6.1H51.49V4.274c0-1.973.828-2.874,2.9-2.874H56.46V2.545H54.438c-1.243,0-1.706.487-1.706,1.7V6.1h3.7V7.246h-3.7v11.2H51.49V7.246H49.152Z" transform="translate(-3.107 -0.088)"></path><path id="Path_3" data-name="Path 3" d="M67.491,6.418h1.242v12.35h-1.1l-.17-2.607a4.509,4.509,0,0,1-4.335,2.753c-2.728,0-4.75-1.7-4.75-5.578V6.418h1.242v6.845c0,2.946,1.413,4.505,3.7,4.505,2.557,0,4.165-2.045,4.165-5.284Z" transform="translate(-3.691 -0.406)"></path><path id="Path_4" data-name="Path 4" d="M78.251,6.418V7.611h-.9c-2.9,0-3.556,2.387-3.556,4.9v6.261H72.552V6.418h1.072l.195,2.46a3.56,3.56,0,0,1,3.775-2.46Z" transform="translate(-4.586 -0.406)"></path><path id="Path_5" data-name="Path 5" d="M91.183,11.841v6.917H89.94V11.889c0-2.923-1.437-4.482-3.824-4.482-2.631,0-4.262,2.045-4.262,5.261v6.089H80.611V6.408h1.072l.195,2.631a4.56,4.56,0,0,1,4.434-2.778c2.8,0,4.871,1.682,4.871,5.579" transform="translate(-5.096 -0.396)"></path><path id="Path_6" data-name="Path 6" d="M94.574,2.641a.877.877,0,0,1,1.754,0,.877.877,0,0,1-1.754,0m.244,3.483H96.06v12.35H94.818Z" transform="translate(-5.978 -0.111)"></path><path id="Path_7" data-name="Path 7" d="M100.109,7.329H97.771V6.184h2.338V2.725h1.242V6.184h3.338V7.329h-3.338v8.306c0,1.267.463,1.754,1.754,1.754h1.706v1.145h-1.8c-2.095,0-2.9-.9-2.9-2.874Z" transform="translate(-6.181 -0.172)"></path><path id="Path_8" data-name="Path 8" d="M116.266,6.418h1.242v12.35h-1.1l-.171-2.607a4.509,4.509,0,0,1-4.335,2.753c-2.728,0-4.75-1.7-4.75-5.578V6.418H108.4v6.845c0,2.946,1.413,4.505,3.7,4.505,2.557,0,4.165-2.045,4.165-5.284Z" transform="translate(-6.774 -0.406)"></path><path id="Path_9" data-name="Path 9" d="M127.026,6.418V7.611h-.9c-2.9,0-3.556,2.387-3.556,4.9v6.261h-1.242V6.418H122.4l.195,2.46a3.56,3.56,0,0,1,3.775-2.46Z" transform="translate(-7.67 -0.406)"></path><path id="Path_10" data-name="Path 10" d="M127.957,12.5c0-3.653,2.314-6.236,5.7-6.236,3.312,0,5.578,2.144,5.7,5.822,0,.147-.024.341-.024.511H129.248v.219c.049,2.874,1.778,4.969,4.53,4.969a4.1,4.1,0,0,0,4.141-3.118h1.267a5.288,5.288,0,0,1-5.31,4.239c-3.507,0-5.919-2.534-5.919-6.407m10.059-.95a4.128,4.128,0,0,0-4.335-4.19,4.342,4.342,0,0,0-4.335,4.19Z" transform="translate(-8.089 -0.396)"></path><path id="Path_11" data-name="Path 11" d="M159.994,6.408h1.072V18c0,3.873-1.875,5.773-5.87,5.773-3,0-5.115-1.413-5.5-4.044h1.291c.39,1.875,2,2.923,4.311,2.923,2.971,0,4.53-1.413,4.53-4.7V15.761A4.833,4.833,0,0,1,155.1,18.9c-3.386,0-5.822-2.436-5.822-6.333,0-3.751,2.436-6.309,5.822-6.309a4.836,4.836,0,0,1,4.7,3.021Zm-.146,6.187c0-3.093-1.9-5.238-4.652-5.238s-4.653,2.144-4.653,5.213,1.9,5.212,4.653,5.212,4.652-2.143,4.652-5.188" transform="translate(-9.436 -0.396)"></path><path id="Path_12" data-name="Path 12" d="M170.679,6.418V7.611h-.9c-2.9,0-3.556,2.387-3.556,4.9v6.261H164.98V6.418h1.072l.195,2.46a3.56,3.56,0,0,1,3.775-2.46Z" transform="translate(-10.429 -0.406)"></path><path id="Path_13" data-name="Path 13" d="M171.61,12.57c0-3.727,2.436-6.308,5.92-6.308s5.943,2.582,5.943,6.308c0,3.751-2.46,6.334-5.943,6.334s-5.92-2.583-5.92-6.334m10.572,0c0-3.045-1.9-5.212-4.652-5.212s-4.653,2.168-4.653,5.212c0,3.069,1.9,5.212,4.653,5.212s4.652-2.143,4.652-5.212" transform="translate(-10.848 -0.396)"></path><path id="Path_14" data-name="Path 14" d="M195.85,6.418h1.242v12.35H196l-.17-2.607a4.509,4.509,0,0,1-4.336,2.753c-2.728,0-4.75-1.7-4.75-5.578V6.418h1.242v6.845c0,2.946,1.413,4.505,3.7,4.505,2.557,0,4.165-2.045,4.165-5.284Z" transform="translate(-11.805 -0.406)"></path><path id="Path_15" data-name="Path 15" d="M212.7,12.57c0,3.751-2.437,6.334-5.821,6.334a4.8,4.8,0,0,1-4.726-3v7.721h-1.242V6.408h1.072l.195,2.825a4.937,4.937,0,0,1,4.7-2.971c3.385,0,5.821,2.436,5.821,6.308m-1.267,0c0-3.045-1.9-5.212-4.652-5.212s-4.652,2.168-4.652,5.189c0,3.092,1.9,5.236,4.652,5.236s4.652-2.143,4.652-5.212" transform="translate(-12.7 -0.396)"></path><path id="Path_16" data-name="Path 16" d="M14.768,11.7c0-.12,0-.238-.007-.356a6.526,6.526,0,0,0-3.4-5.945,5.781,5.781,0,0,0-2.693-.621A5.059,5.059,0,0,0,5.02,6.161V0H0V18.361H4.65V16.822a4.739,4.739,0,0,0,3.882,1.856h0a6.177,6.177,0,0,0,2.495-.5,5.824,5.824,0,0,0,2.621-2.263,7.454,7.454,0,0,0,1.117-4.189Zm-7.45,3.25c-1.295,0-2.3-1.4-2.3-3.223s1-3.223,2.3-3.223c1.453,0,2.3,1.189,2.3,3.223s-.845,3.223-2.3,3.223" transform="translate(0 0)"></path><path id="Path_17" data-name="Path 17" d="M17.767,18.685V5.422h4.649V6.69a4.845,4.845,0,0,1,3.858-1.585c3.276,0,5.073,1.849,5.073,5.2v8.375H26.327v-7.5c0-1.4-.529-2.088-1.559-2.088-1.163,0-1.981.791-1.981,2.511v7.08Z" transform="translate(-1.123 -0.323)"></path><path id="Path_18" data-name="Path 18" d="M34.519,8.118a2.994,2.994,0,0,1,3.038-2.986A2.946,2.946,0,0,1,40.6,8.118,2.946,2.946,0,0,1,37.557,11.1a2.994,2.994,0,0,1-3.038-2.986m0,7.952a2.994,2.994,0,0,1,3.038-2.986,2.986,2.986,0,1,1,0,5.971,2.994,2.994,0,0,1-3.038-2.986" transform="translate(-2.182 -0.324)"></path></g></svg>